#!OML:ASF H:\Terrain\Patient Classification 1\Terrain2\Thursday\justin.ASF
:FULLY-SPECIFIED
:DEGREES
1380
root 19.4086 24.2144 13.4031 540.955 -6.81126 -175.259
lowerback 7.6912 -0.341056 4.40015
upperback 2.35127 -0.410403 4.17291
thorax -1.86625 -0.377815 1.88536
lowerneck -13.3336 2.69496 -9.4274
upperneck 39.8 1.02498 2.82061
head 16.4167 -2.17779 2.6519
rclavicle 8.74653e-015 3.26007e-014
rhumerus -31.3523 -25.2008 -68.6805
rradius 24.3729
rwrist -6.4231
rhand -20.8257 13.0434
rfingers 7.12502
rthumb 5.54268 -16.8641
lclavicle 8.74653e-015 3.26007e-014
lhumerus -40.0027 6.94993 83.0548
lradius 31.9303
lwrist 0.511575
lhand -12.2283 21.0399
lfingers 7.12502
lthumb 13.837 50.5596
rfemur -16.0809 -5.18467 27.1967
rtibia 27.7427
rfoot -9.71483 -1.05288
rtoes 18.1904
lfemur -2.37957 -4.07656 -14.3216
ltibia 50.5976
lfoot 21.2696 -11.7
ltoes 30.5311
1381
root 19.4154 24.217 13.2936 540.779 -7.00342 -175.177
lowerback 7.61427 -0.212218 4.55989
upperback 2.57046 -0.260655 4.14171
thorax -1.59613 -0.304369 1.74676
lowerneck -13.5484 2.43321 -9.44469
upperneck 39.6063 0.702871 2.98263
head 16.3956 -2.24427 2.68316
rclavicle -2.66371e-014 -1.27222e-014
rhumerus -30.7648 -25.6239 -68.7479
rradius 24.2759
rwrist -5.47767
rhand -20.2815 13.8651
rfingers 7.12502
rthumb 6.06807 -16.028
lclavicle -2.66371e-014 -1.27222e-014
lhumerus -39.3488 6.54474 83.0691
lradius 32.2762
lwrist 0.541264
lhand -11.9029 21.2342
lfingers 7.12502
lthumb 14.1506 50.7323
rfemur -15.2744 -5.14016 27.2929
rtibia 27.3898
rfoot -9.99441 -1.30541
rtoes 17.9753
lfemur -3.69556 -4.13564 -14.1321
ltibia 52.8229
lfoot 21.6834 -12.0646
ltoes 32.1568
1382
root 19.4239 24.2101 13.1831 540.454 -7.12249 -175.254
lowerback 7.83449 -0.219951 4.2955
upperback 2.44147 -0.254534 4.14396
thorax -1.85251 -0.300329 1.90031
lowerneck -12.834 2.51319 -9.24561
upperneck 39.5619 0.589337 2.94586
head 16.2033 -2.29583 2.59777
rclavicle -4.17448e-015 -4.29375e-014
rhumerus -30.8341 -24.2243 -69.2694
rradius 24.8691
rwrist -6.32118
rhand -20.5542 13.4358
rfingers 7.12502
rthumb 5.80476 -16.4646
lclavicle -4.17448e-015 -4.29375e-014
lhumerus -39.5493 6.28861 82.9595
lradius 32.6357
lwrist 1.33777
lhand -12.3164 21.2307
lfingers 7.12502
lthumb 13.7521 50.7563
rfemur -14.3068 -4.98164 27.1757
rtibia 27.1325
rfoot -10.4585 -1.454
rtoes 20.1823
lfemur -4.55322 -4.40461 -14.1967
ltibia 54.8843
lfoot 20.837 -12.0371
ltoes 31.3513
1383
root 19.4382 24.2107 13.0767 540.113 -7.1724 -175.07
lowerback 8.1091 -0.262375 4.29907
upperback 2.4911 -0.311009 4.26882
thorax -1.95192 -0.338185 2.03704
lowerneck -12.885 2.55226 -9.41838
upperneck 39.7517 0.634742 2.97715
head 16.3108 -2.32564 2.64789
rclavicle -2.78299e-015 -3.65764e-014
rhumerus -30.2942 -23.336 -69.7432
rradius 25.1147
rwrist -6.66679
rhand -20.7433 12.8874
rfingers 7.12502
rthumb 5.6222 -17.018
lclavicle -2.78299e-015 -3.65764e-014
lhumerus -39.4778 6.14638 83.059
lradius 33.1869
lwrist 2.71892
lhand -13.6969 21.2593
lfingers 7.12502
lthumb 12.4213 50.8703
rfemur -13.3535 -4.59305 27.4072
rtibia 26.8673
rfoot -10.8931 -1.83223
rtoes 21.5675
lfemur -5.53068 -4.46994 -13.8981
ltibia 56.9095
lfoot 19.7184 -11.29
ltoes 29.3057
1384
root 19.4539 24.2236 12.9762 539.972 -7.26633 -174.659
lowerback 8.22914 -0.238943 4.57749
upperback 2.49508 -0.268181 4.43784
thorax -2.01283 -0.328112 2.0551
lowerneck -12.9201 2.47881 -9.68389
upperneck 39.8008 0.517904 3.1726
head 16.3526 -2.39199 2.76334
rclavicle 2.20651e-014 -5.08889e-014
rhumerus -29.7335 -22.9756 -70.0074
rradius 25.25
rwrist -6.87595
rhand -20.9377 12.2201
rfingers 7.12502
rthumb 5.43446 -17.6902
lclavicle 2.20651e-014 -5.08889e-014
lhumerus -39.3112 6.02698 83.1077
lradius 33.7422
lwrist 3.30189
lhand -14.9206 20.4908
lfingers 7.12502
lthumb 11.2413 50.1696
rfemur -12.733 -4.21302 27.9795
rtibia 26.4746
rfoot -11.0506 -2.4066
rtoes 20.7904
lfemur -6.98513 -4.28695 -13.2306
ltibia 58.9952
lfoot 18.2076 -10.1203
ltoes 25.9984
1385
root 19.4613 24.2411 12.8746 539.879 -7.38928 -174.358
lowerback 8.28726 -0.138975 4.93905
upperback 2.41415 -0.0934473 4.40328
thorax -2.12845 -0.242333 1.80128
lowerneck -12.6489 2.38032 -9.47472
upperneck 39.819 0.169765 3.31531
head 16.3245 -2.49479 2.72861
rclavicle -7.7526e-015 -3.97569e-014
rhumerus -29.6821 -22.8966 -70.2215
rradius 25.6999
rwrist -7.28469
rhand -20.9914 11.854
rfingers 7.12502
rthumb 5.38266 -18.0577
lclavicle -7.7526e-015 -3.97569e-014
lhumerus -39.1008 5.69052 82.8543
lradius 34.1814
lwrist 3.19164
lhand -15.5719 20.2343
lfingers 7.12502
lthumb 10.6131 49.9463
rfemur -12.147 -4.24604 28.4049
rtibia 25.9437
rfoot -11.0158 -2.66689
rtoes 19.8251
lfemur -8.53951 -4.25758 -12.7748
ltibia 61.0932
lfoot 15.5015 -9.64243
ltoes 19.6972
1386
root 19.466 24.2516 12.7746 539.855 -7.56355 -174.169
lowerback 8.17807 -0.0975771 5.17727
upperback 2.40523 -0.0267974 4.37743
thorax -2.07575 -0.208304 1.63361
lowerneck -12.682 2.31644 -9.27848
upperneck 39.9928 -0.0314155 3.30957
head 16.4446 -2.56683 2.65798
rclavicle 2.127e-014 -2.8625e-014
rhumerus -29.3393 -22.9536 -70.4504
rradius 25.977
rwrist -7.29267
rhand -20.9339 11.7702
rfingers 7.12502
rthumb 5.43816 -18.14
lclavicle 2.127e-014 -2.8625e-014
lhumerus -38.8437 5.48191 82.674
lradius 34.726
lwrist 3.21838
lhand -16.2202 21.3614
lfingers 7.12502
lthumb 9.98775 51.1044
rfemur -11.5213 -4.57183 28.6764
rtibia 25.4011
rfoot -11.0204 -2.74378
rtoes 18.4376
lfemur -10.2884 -4.21797 -12.4217
ltibia 63.1304
lfoot 12.8865 -9.06121
ltoes 13.6937
1387
root 19.4773 24.2515 12.6759 539.747 -7.82213 -173.958
lowerback 8.12872 -0.0750863 5.34169
upperback 2.46516 -0.00030745 4.41067
thorax -1.9846 -0.197371 1.57296
lowerneck -12.8541 2.17796 -9.37385
upperneck 40.0681 -0.238786 3.42864
head 16.5482 -2.64889 2.69726
rclavicle 7.7526e-015 7.95139e-016
rhumerus -28.8178 -22.9741 -70.7362
rradius 26.1927
rwrist -7.39481
rhand -21.0623 11.553
rfingers 7.12502
rthumb 5.31415 -18.3603
lclavicle 7.7526e-015 7.95139e-016
lhumerus -38.6043 5.20711 82.6342
lradius 35.4178
lwrist 3.35705
lhand -16.377 22.0624
lfingers 7.12502
lthumb 9.83649 51.8127
rfemur -10.8079 -4.78605 28.9812
rtibia 24.9506
rfoot -11.1975 -2.94779
rtoes 17.8029
lfemur -11.9289 -4.21168 -11.986
ltibia 64.9677
lfoot 11.6589 -7.39506
ltoes 14.2328
1388
root 19.4886 24.2497 12.5729 539.496 -7.93495 -173.916
lowerback 8.31949 0.0179872 5.32305
upperback 2.46903 0.140088 4.36836
thorax -2.085 -0.127893 1.5271
lowerneck -12.7322 2.05258 -9.44055
upperneck 40.1155 -0.549581 3.64673
head 16.5715 -2.76704 2.75357
rclavicle -7.55382e-015 -7.23576e-014
rhumerus -28.7092 -22.7252 -70.9224
rradius 26.5721
rwrist -7.7254
rhand -21.0746 11.7952
rfingers 7.12502
rthumb 5.30232 -18.1185
lclavicle -7.55382e-015 -7.23576e-014
lhumerus -38.4896 4.85197 82.5047
lradius 36.3123
lwrist 3.06187
lhand -15.1823 23.2829
lfingers 7.12502
lthumb 10.9889 52.9753
rfemur -9.99827 -4.74689 29.0891
rtibia 24.6559
rfoot -11.4961 -3.17294
rtoes 18.1036
lfemur -13.1721 -4.05553 -11.8175
ltibia 66.5364
lfoot 10.6401 -6.42821
ltoes 16.2169
1389
root 19.4965 24.2477 12.4745 539.35 -7.96121 -174.089
lowerback 8.45396 0.0457481 5.00248
upperback 2.43132 0.17168 4.37643
thorax -2.20134 -0.11073 1.71249
lowerneck -12.4865 2.05849 -9.59915
upperneck 40.1584 -0.626969 3.75996
head 16.5394 -2.82787 2.81497
rclavicle -1.18277e-014 2.62396e-014
rhumerus -28.5041 -21.9861 -71.1205
rradius 26.948
rwrist -8.04728
rhand -21.1716 12.0026
rfingers 7.12502
rthumb 5.20861 -17.9133
lclavicle -1.18277e-014 2.62396e-014
lhumerus -38.511 5.04938 82.3818
lradius 36.5403
lwrist 3.71843
lhand -15.7147 19.9483
lfingers 7.12502
lthumb 10.4754 49.6673
rfemur -9.37251 -4.56486 28.9542
rtibia 24.5151
rfoot -11.8746 -3.40264
rtoes 18.188
lfemur -14.4361 -3.64706 -11.9694
ltibia 67.9369
lfoot 8.88295 -6.74338
ltoes 12.9704
1390
root 19.5058 24.2339 12.3845 539.244 -8.03148 -173.956
lowerback 8.50036 0.00681101 5.02592
upperback 2.46858 0.111801 4.47461
thorax -2.18825 -0.146147 1.80812
lowerneck -12.3578 2.06247 -9.74821
upperneck 40.0052 -0.551064 3.73795
head 16.4183 -2.80926 2.84305
rclavicle 2.11706e-014 8.50798e-014
rhumerus -27.9224 -21.5477 -71.4498
rradius 27.2748
rwrist -8.11886
rhand -21.3236 11.2824
rfingers 7.12502
rthumb 5.06193 -18.6371
lclavicle 2.11706e-014 8.50798e-014
lhumerus -38.4264 5.50521 82.2365
lradius 37.1373
lwrist 4.03487
lhand -15.5329 18.1127
lfingers 7.12502
lthumb 10.6508 47.8228
rfemur -8.8726 -4.61132 29.1697
rtibia 24.3452
rfoot -12.1507 -3.48892
rtoes 17.927
lfemur -15.8395 -3.25709 -11.7757
ltibia 69.3039
lfoot 6.84316 -7.45343
ltoes 6.9132
1391
root 19.5165 24.2252 12.2907 539.154 -8.08215 -173.811
lowerback 8.57331 0.0351539 5.07028
upperback 2.4781 0.152748 4.52449
thorax -2.21812 -0.12944 1.83181
lowerneck -12.3133 2.01129 -9.84556
upperneck 39.9324 -0.592861 3.75449
head 16.3736 -2.83059 2.86106
rclavicle 2.59414e-014 -2.8625e-014
rhumerus -27.505 -21.2224 -71.7597
rradius 27.6948
rwrist -8.36267
rhand -21.4779 10.6069
rfingers 7.12502
rthumb 4.91288 -19.3161
lclavicle 2.59414e-014 -2.8625e-014
lhumerus -38.3452 5.61407 82.0539
lradius 38.0563
lwrist 4.40426
lhand -15.6634 19.4829
lfingers 7.12502
lthumb 10.5249 49.1994
rfemur -8.33818 -4.78027 29.3959
rtibia 24.1007
rfoot -12.4144 -3.41087
rtoes 18.4313
lfemur -17.325 -3.06838 -11.5249
ltibia 70.6064
lfoot 5.41588 -7.90989
ltoes 3.11304
1392
root 19.5227 24.2322 12.1914 538.998 -8.0857 -173.734
lowerback 8.72801 0.0609755 4.94593
upperback 2.37945 0.197363 4.61904
thorax -2.40767 -0.110987 1.99757
lowerneck -11.9969 2.0449 -10.0074
upperneck 39.9738 -0.606516 3.76308
head 16.3182 -2.8844 2.88504
rclavicle 2.43511e-014 -4.77083e-015
rhumerus -27.4199 -20.3333 -71.9817
rradius 28.2603
rwrist -9.044
rhand -21.8339 10.4169
rfingers 7.12502
rthumb 4.56916 -19.5139
lclavicle 2.43511e-014 -4.77083e-015
lhumerus -38.6077 5.76793 81.8999
lradius 38.9659
lwrist 4.59455
lhand -16.6386 22.1839
lfingers 7.12502
lthumb 9.58401 51.9459
rfemur -7.67092 -4.68837 29.5328
rtibia 23.8397
rfoot -12.687 -3.53746
rtoes 19.4176
lfemur -18.8122 -2.92716 -11.3386
ltibia 71.7822
lfoot 4.31502 -8.07714
ltoes 3.7585
